<?xml version="1.0" encoding="utf-8"?>
<!-- Generator: Adobe Illustrator 27.5.0, SVG Export Plug-In . SVG Version: 6.00 Build 0)  -->
<svg xmlns:xlink="http://www.w3.org/1999/xlink" version="1.1" id="Warstwa_1"
     xmlns="http://www.w3.org/2000/svg" x="0px" y="0px"
     viewBox="0 0 738.2 738.2" style="enable-background:new 0 0 738.2 738.2;" xml:space="preserve">
<style type="text/css">
	.st0{fill:#FFE421;}
	.st1{fill:#565656;}
</style>
	<g>
	<g>
		<path class="st0" d="M319.7,61.8c-7.9,0-14.3-6.4-14.3-14.3s6.4-14.3,14.3-14.3h67.7c7.9,0,14.3,6.4,14.3,14.3
			s-6.4,14.3-14.3,14.3H319.7L319.7,61.8z"/>
		<path class="st0" d="M387.4,34.7c7,0,12.8,5.7,12.8,12.8s-5.7,12.8-12.8,12.8h-67.7c-7,0-12.8-5.7-12.8-12.8s5.7-12.8,12.8-12.8
			H387.4 M387.4,31.7h-67.7c-8.7,0-15.8,7.1-15.8,15.8l0,0c0,8.7,7.1,15.8,15.8,15.8h67.7c8.7,0,15.8-7.1,15.8-15.8l0,0
			C403.1,38.8,396.1,31.7,387.4,31.7L387.4,31.7z"/>
	</g>
		<g>
		<path class="st0" d="M231.8,104.7c-7.9,0-14.3-6.4-14.3-14.3s6.4-14.3,14.3-14.3h243.4c7.9,0,14.3,6.4,14.3,14.3
			s-6.4,14.3-14.3,14.3H231.8z"/>
			<path class="st0" d="M475.2,77.6c7,0,12.8,5.7,12.8,12.8s-5.7,12.8-12.8,12.8H231.8c-7,0-12.8-5.7-12.8-12.8
			c0-7,5.7-12.8,12.8-12.8L475.2,77.6 M475.2,74.6H231.8c-8.7,0-15.8,7.1-15.8,15.8l0,0c0,8.7,7.1,15.8,15.8,15.8h243.4
			c8.7,0,15.8-7.1,15.8-15.8l0,0C491,81.7,484,74.6,475.2,74.6L475.2,74.6z"/>
	</g>
		<g>
		<path class="st0" d="M190.8,147.6c-7.9,0-14.3-6.4-14.3-14.3c0-7.9,6.4-14.3,14.3-14.3h388c7.9,0,14.3,6.4,14.3,14.3
			c0,7.9-6.4,14.3-14.3,14.3H190.8z"/>
			<path class="st0" d="M578.8,120.5c7,0,12.8,5.7,12.8,12.8c0,7-5.7,12.8-12.8,12.8h-388c-7,0-12.8-5.7-12.8-12.8
			c0-7,5.7-12.8,12.8-12.8L578.8,120.5 M578.7,117.5h-388c-8.7,0-15.8,7.1-15.8,15.8l0,0c0,8.7,7.1,15.8,15.8,15.8h388
			c8.7,0,15.8-7.1,15.8-15.8l0,0C594.5,124.6,587.5,117.5,578.7,117.5L578.7,117.5z"/>
	</g>
		<g>
		<path class="st0" d="M170.9,190.4c-7.9,0-14.3-6.4-14.3-14.3s6.4-14.3,14.3-14.3h365.3c7.9,0,14.3,6.4,14.3,14.3
			s-6.4,14.3-14.3,14.3H170.9z"/>
			<path class="st0" d="M536.2,163.4c7,0,12.8,5.7,12.8,12.8s-5.7,12.8-12.8,12.8H170.9c-7,0-12.8-5.7-12.8-12.8s5.7-12.8,12.8-12.8
			H536.2 M536.2,160.4H170.9c-8.7,0-15.8,7.1-15.8,15.8l0,0c0,8.7,7.1,15.8,15.8,15.8h365.3c8.7,0,15.8-7.1,15.8-15.8l0,0
			C552,167.5,544.9,160.4,536.2,160.4L536.2,160.4z"/>
	</g>
		<g>
		<path class="st0" d="M159.2,233.3c-7.9,0-14.3-6.4-14.3-14.3s6.4-14.3,14.3-14.3h419.2c7.9,0,14.3,6.4,14.3,14.3
			s-6.4,14.3-14.3,14.3H159.2z"/>
			<path class="st0" d="M578.4,206.3c7,0,12.8,5.7,12.8,12.8s-5.7,12.8-12.8,12.8H159.2c-7,0-12.8-5.7-12.8-12.8s5.7-12.8,12.8-12.8
			H578.4 M578.4,203.3H159.2c-8.7,0-15.8,7.1-15.8,15.8s7.1,15.8,15.8,15.8h419.2c8.7,0,15.8-7.1,15.8-15.8S587.1,203.3,578.4,203.3
			L578.4,203.3z"/>
	</g>
		<g>
		<path class="st0" d="M159.2,276.2c-7.9,0-14.3-6.4-14.3-14.3c0-7.9,6.4-14.3,14.3-14.3h376.6c7.9,0,14.3,6.4,14.3,14.3
			c0,7.9-6.4,14.3-14.3,14.3H159.2z"/>
			<path class="st0" d="M535.9,249.2c7,0,12.8,5.7,12.8,12.8c0,7-5.7,12.8-12.8,12.8H159.2c-7,0-12.8-5.7-12.8-12.8
			c0-7,5.7-12.8,12.8-12.8H535.9 M535.9,246.2H159.2c-8.7,0-15.8,7.1-15.8,15.8s7.1,15.8,15.8,15.8h376.6c8.7,0,15.8-7.1,15.8-15.8
			C551.7,253.2,544.6,246.2,535.9,246.2L535.9,246.2L535.9,246.2z"/>
	</g>
		<g>
		<path class="st0" d="M176.9,319.1c-7.9,0-14.3-6.4-14.3-14.3s6.4-14.3,14.3-14.3H579c7.9,0,14.3,6.4,14.3,14.3
			s-6.4,14.3-14.3,14.3H176.9z"/>
			<path class="st0" d="M579,292c7,0,12.8,5.7,12.8,12.8s-5.7,12.8-12.8,12.8H176.9c-7,0-12.8-5.7-12.8-12.8s5.7-12.8,12.8-12.8H579
			 M579,289H176.9c-8.7,0-15.8,7.1-15.8,15.8s7.1,15.8,15.8,15.8H579c8.7,0,15.8-7.1,15.8-15.8S587.7,289,579,289L579,289z"/>
	</g>
		<g>
		<path class="st0" d="M207.6,362c-7.9,0-14.3-6.4-14.3-14.3s6.4-14.3,14.3-14.3h266.1c7.9,0,14.3,6.4,14.3,14.3
			s-6.4,14.3-14.3,14.3H207.6z"/>
			<path class="st0" d="M473.6,334.9c7,0,12.8,5.7,12.8,12.8s-5.7,12.8-12.8,12.8H207.6c-7,0-12.8-5.7-12.8-12.8s5.7-12.8,12.8-12.8
			H473.6 M473.6,331.9H207.6c-8.7,0-15.8,7.1-15.8,15.8l0,0c0,8.7,7.1,15.8,15.8,15.8h266.1c8.7,0,15.8-7.1,15.8-15.8l0,0
			C489.4,339,482.4,331.9,473.6,331.9L473.6,331.9z"/>
	</g>
		<g>
		<path class="st0" d="M236,404.8c-7.9,0-14.3-6.4-14.3-14.3s6.4-14.3,14.3-14.3h300.1c7.9,0,14.3,6.4,14.3,14.3
			s-6.4,14.3-14.3,14.3H236z"/>
			<path class="st0" d="M536.1,377.8c7,0,12.8,5.7,12.8,12.8s-5.7,12.8-12.8,12.8H236c-7,0-12.8-5.7-12.8-12.8s5.7-12.8,12.8-12.8
			H536.1 M536.1,374.8H236c-8.7,0-15.8,7.1-15.8,15.8l0,0c0,8.7,7.1,15.8,15.8,15.8h300.1c8.7,0,15.8-7.1,15.8-15.8l0,0
			C551.9,381.9,544.8,374.8,536.1,374.8L536.1,374.8z"/>
	</g>
		<g>
		<path class="st0" d="M256.6,447.7c-7.9,0-14.3-6.4-14.3-14.3s6.4-14.3,14.3-14.3h198.1c7.9,0,14.3,6.4,14.3,14.3
			s-6.4,14.3-14.3,14.3H256.6z"/>
			<path class="st0" d="M454.7,420.7c7,0,12.8,5.7,12.8,12.8s-5.7,12.8-12.8,12.8H256.6c-7,0-12.8-5.7-12.8-12.8s5.7-12.8,12.8-12.8
			H454.7 M454.7,417.7H256.6c-8.7,0-15.8,7.1-15.8,15.8l0,0c0,8.7,7.1,15.8,15.8,15.8h198.1c8.7,0,15.8-7.1,15.8-15.8l0,0
			C470.5,424.7,463.4,417.7,454.7,417.7L454.7,417.7z"/>
	</g>
		<g>
		<path class="st0" d="M265,490.6c-7.9,0-14.3-6.4-14.3-14.3s6.4-14.3,14.3-14.3h209.4c7.9,0,14.3,6.4,14.3,14.3
			s-6.4,14.3-14.3,14.3H265z"/>
			<path class="st0" d="M474.4,463.6c7,0,12.8,5.7,12.8,12.8s-5.7,12.8-12.8,12.8H265c-7,0-12.8-5.7-12.8-12.8s5.7-12.8,12.8-12.8
			H474.4 M474.4,460.6H265c-8.7,0-15.8,7.1-15.8,15.8l0,0c0,8.7,7.1,15.8,15.8,15.8h209.4c8.7,0,15.8-7.1,15.8-15.8l0,0
			C490.2,467.6,483.1,460.6,474.4,460.6L474.4,460.6z"/>
	</g>
		<g>
		<path class="st0" d="M267.3,533.5c-7.9,0-14.3-6.4-14.3-14.3s6.4-14.3,14.3-14.3h172.5c7.9,0,14.3,6.4,14.3,14.3
			s-6.4,14.3-14.3,14.3H267.3z"/>
			<path class="st0" d="M439.8,506.4c7,0,12.8,5.7,12.8,12.8s-5.7,12.8-12.8,12.8H267.3c-7,0-12.8-5.7-12.8-12.8s5.7-12.8,12.8-12.8
			H439.8 M439.8,503.4H267.3c-8.7,0-15.8,7.1-15.8,15.8c0,8.7,7.1,15.8,15.8,15.8h172.5c8.7,0,15.8-7.1,15.8-15.8
			C455.6,510.5,448.5,503.4,439.8,503.4L439.8,503.4z"/>
	</g>
		<g>
		<path class="st1" d="M267.3,576.4c-7.9,0-14.3-6.4-14.3-14.3s6.4-14.3,14.3-14.3h172.5c7.9,0,14.3,6.4,14.3,14.3
			s-6.4,14.3-14.3,14.3H267.3z"/>
			<path class="st1" d="M439.8,549.3c7,0,12.8,5.7,12.8,12.8s-5.7,12.8-12.8,12.8H267.3c-7,0-12.8-5.7-12.8-12.8s5.7-12.8,12.8-12.8
			H439.8 M439.8,546.3H267.3c-8.7,0-15.8,7.1-15.8,15.8s7.1,15.8,15.8,15.8h172.5c8.7,0,15.8-7.1,15.8-15.8S448.5,546.3,439.8,546.3
			L439.8,546.3z"/>
	</g>
		<g>
		<path class="st1" d="M267.3,619.3c-7.9,0-14.3-6.4-14.3-14.3s6.4-14.3,14.3-14.3h172.5c7.9,0,14.3,6.4,14.3,14.3
			s-6.4,14.3-14.3,14.3H267.3z"/>
			<path class="st1" d="M439.8,592.2c7,0,12.8,5.7,12.8,12.8s-5.7,12.8-12.8,12.8H267.3c-7,0-12.8-5.7-12.8-12.8s5.7-12.8,12.8-12.8
			H439.8 M439.8,589.2H267.3c-8.7,0-15.8,7.1-15.8,15.8l0,0c0,8.7,7.1,15.8,15.8,15.8h172.5c8.7,0,15.8-7.1,15.8-15.8l0,0
			C455.6,596.3,448.5,589.2,439.8,589.2L439.8,589.2z"/>
	</g>
		<g>
		<path class="st1" d="M267.3,662.1c-7.9,0-14.3-6.4-14.3-14.3s6.4-14.3,14.3-14.3h172.5c7.9,0,14.3,6.4,14.3,14.3
			s-6.4,14.3-14.3,14.3H267.3z"/>
			<path class="st1" d="M439.8,635.1c7,0,12.8,5.7,12.8,12.8s-5.7,12.8-12.8,12.8H267.3c-7,0-12.8-5.7-12.8-12.8s5.7-12.8,12.8-12.8
			H439.8 M439.8,632.1H267.3c-8.7,0-15.8,7.1-15.8,15.8l0,0c0,8.7,7.1,15.8,15.8,15.8h172.5c8.7,0,15.8-7.1,15.8-15.8l0,0
			C455.6,639.1,448.5,632.1,439.8,632.1L439.8,632.1z"/>
	</g>
		<g>
		<path class="st1" d="M319.7,705c-7.9,0-14.3-6.4-14.3-14.3s6.4-14.3,14.3-14.3h67.7c7.9,0,14.3,6.4,14.3,14.3s-6.4,14.3-14.3,14.3
			H319.7L319.7,705z"/>
			<path class="st1" d="M387.4,678c7,0,12.8,5.7,12.8,12.8s-5.7,12.8-12.8,12.8h-67.7c-7,0-12.8-5.7-12.8-12.8s5.7-12.8,12.8-12.8
			H387.4 M387.4,675h-67.7c-8.7,0-15.8,7.1-15.8,15.8l0,0c0,8.7,7.1,15.8,15.8,15.8h67.7c8.7,0,15.8-7.1,15.8-15.8l0,0
			C403.1,682,396.1,675,387.4,675L387.4,675z"/>
	</g>
</g>
</svg>
