<?xml version="1.0" encoding="utf-8"?>
<!-- Generator: Adobe Illustrator 27.5.0, SVG Export Plug-In . SVG Version: 6.00 Build 0)  -->
<svg xmlns:xlink="http://www.w3.org/1999/xlink" version="1.1" id="Warstwa_1"
     xmlns="http://www.w3.org/2000/svg" x="0px" y="0px"
     viewBox="0 0 2834.6 697.2" style="enable-background:new 0 0 2834.6 697.2;"
     xml:space="preserve">
<style type="text/css">
	.st0{fill:#757575;}
	.st1{fill:#565656;}
	.st2{fill:none;stroke:#565656;stroke-width:4;stroke-miterlimit:10;}
	.st3{fill:#FFE421;}
</style>
	<g>
	<g>
		<g>
			<path class="st0" d="M646.7,565.2c-14.1,0-25.8-2-34.7-5.8c-8.8-3.8-15.4-9.8-19.8-17.9c-4.5-8.2-7.5-17.3-9-27
				c-1.5-9.8-2.3-22.4-2.3-37.5V233.2h-61.8v-5.3l61.8-1.8v-72.6l7.7-1.3v74h91v7h-91v245.6c0,10.5,0.3,19.4,0.9,26.5
				c0.6,7.1,2.1,14.3,4.3,21.5c2.3,7.3,5.6,13.1,9.8,17.3c4.2,4.2,10,7.6,17.1,10.2c7.1,2.6,15.8,3.9,25.9,3.9
				c13.7,0,26.2-2.1,37.1-6.2l1.9,6C674.1,562.7,661,565.2,646.7,565.2L646.7,565.2z"/>
			<path class="st0" d="M587,153.9v73.7h91v4h-91v247.1c0,10.6,0.3,19.5,0.9,26.6c0.6,7.2,2.1,14.5,4.4,21.8
				c2.4,7.5,5.8,13.6,10.2,18c4.3,4.3,10.3,7.9,17.7,10.6c7.3,2.6,16.2,4,26.4,4c13.3,0,25.4-1.9,36.1-5.8l1,3.2
				c-11,4.4-23.4,6.6-37.1,6.6s-25.4-1.9-34.1-5.7c-8.5-3.7-14.9-9.5-19.1-17.2c-4.4-8.1-7.3-17-8.8-26.6
				c-1.5-9.7-2.2-22.3-2.2-37.3V231.7h-61.8v-2.3l58.9-1.7l2.9-0.1v-72.8L587,153.9 M590,150.4l-10.7,1.8v72.4l-61.8,1.8v8.2h61.8
				v242.2c0,15.2,0.8,27.8,2.3,37.7c1.5,9.9,4.6,19.1,9.1,27.5c4.6,8.4,11.4,14.6,20.5,18.6c9.1,4,20.9,5.9,35.3,5.9
				c15.2,0,28.8-2.6,40.8-7.9l-2.7-8.8c-11.2,4.5-23.8,6.7-38,6.7c-9.9,0-18.4-1.3-25.4-3.8c-7-2.5-12.5-5.8-16.6-9.9
				c-4.1-4.1-7.2-9.6-9.4-16.7c-2.2-7.1-3.7-14.2-4.3-21.1c-0.6-7-0.9-15.8-0.9-26.3V234.7h91v-10h-91L590,150.4L590,150.4
				L590,150.4z"/>
		</g>
		<g>
			<path class="st0" d="M871.8,568.2c-37,0-65.1-10.9-83.5-32.3c-18.5-21.5-27.9-54.4-27.9-97.6v-87c0-43.4,9.4-76.3,27.9-97.9
				c18.4-21.5,46.5-32.4,83.5-32.4c20.2,0,37.7,3.1,52.1,9.2c14.3,6.1,25.8,14.9,34.4,26.4c8.6,11.6,14.9,25.2,18.8,40.7
				c3.9,15.5,5.9,33.7,5.9,54v87c0,41.7-8.8,74.1-26,96.5C939.7,556.9,911.1,568.2,871.8,568.2L871.8,568.2z M871.8,228
				c-37.3,0-64.2,11.1-80,32.9C776,282.5,768,313.8,768,353.7v82.2c0,19.3,1.8,36.5,5.2,51.2c3.5,14.7,9.2,28,17,39.3
				c7.8,11.4,18.7,20.3,32.3,26.2c13.5,5.9,30.1,9,49.3,9c37.5,0,64.4-11,80-32.7c15.5-21.6,23.4-52.8,23.4-92.9v-82.2
				c0-40.1-7.9-71.4-23.4-92.9C936.1,239,909.2,228,871.8,228L871.8,228z"/>
			<path class="st0" d="M871.8,222.5c20,0,37.3,3,51.5,9c14,5.9,25.4,14.7,33.8,26c8.5,11.4,14.7,24.9,18.5,40.2
				c3.9,15.4,5.8,33.4,5.8,53.6v87c0,41.3-8.7,73.5-25.7,95.5c-8.4,10.9-19.7,19.2-33.5,24.6c-14,5.5-30.9,8.3-50.4,8.3
				c-18.4,0-34.6-2.7-48.3-8c-13.6-5.3-25-13.3-34.1-23.8c-18.2-21.2-27.5-53.8-27.5-96.6v-87c0-43,9.2-75.6,27.5-96.9
				c9-10.6,20.5-18.6,34.1-23.9C837.2,225.2,853.4,222.5,871.8,222.5 M871.8,563c38,0,65.3-11.2,81.2-33.3
				c15.7-21.8,23.7-53.4,23.7-93.8v-82.2c0-40.4-8-72-23.7-93.8c-15.9-22.1-43.3-33.4-81.2-33.4s-65.1,11.3-81.2,33.5
				c-15.9,21.9-24,53.4-24,93.7v82.2c0,19.4,1.8,36.8,5.2,51.5c3.5,14.9,9.3,28.3,17.2,39.8c8,11.7,19.1,20.7,32.9,26.8
				C835.6,559.9,852.4,563,871.8,563 M871.8,219.5c-75.3,0-112.9,43.9-112.9,131.8v87c0,87.6,37.6,131.5,112.9,131.5
				c40,0,68.7-11.4,86.3-34.1c17.5-22.7,26.3-55.2,26.3-97.4v-87c0-20.5-2-38.6-5.9-54.3c-4-15.7-10.3-29.5-19-41.2
				c-8.7-11.8-20.4-20.7-35-26.9C909.8,222.5,892.3,219.5,871.8,219.5L871.8,219.5L871.8,219.5z M871.8,560
				c-19.1,0-35.3-2.9-48.7-8.8s-23.9-14.5-31.7-25.7s-13.3-24.2-16.7-38.8s-5.2-31.5-5.2-50.8v-82.2c0-39.8,7.8-70.4,23.4-91.9
				c15.6-21.5,41.9-32.3,78.8-32.3s63.4,10.7,78.8,32.1c15.4,21.4,23.1,52.1,23.1,92.1v82.2c0,40-7.7,70.6-23.1,92.1
				C935.2,549.3,908.9,560,871.8,560L871.8,560L871.8,560z"/>
		</g>
		<g>
			<path class="st0" d="M1172.1,568.2c-37,0-65.1-10.9-83.5-32.3c-18.5-21.5-27.9-54.4-27.9-97.6v-87c0-43.4,9.4-76.3,27.9-97.9
				c18.4-21.5,46.5-32.4,83.5-32.4c20.2,0,37.7,3.1,52.1,9.2c14.3,6.1,25.8,14.9,34.4,26.4c8.6,11.6,14.9,25.2,18.8,40.7
				c3.9,15.5,5.9,33.7,5.9,54v87c0,41.7-8.8,74.1-26,96.5C1240,556.9,1211.4,568.2,1172.1,568.2L1172.1,568.2z M1172.1,228
				c-37.3,0-64.2,11.1-80,32.9c-15.7,21.7-23.7,52.9-23.7,92.8v82.2c0,19.3,1.8,36.5,5.2,51.2c3.5,14.7,9.2,28,17,39.3
				c7.8,11.4,18.7,20.3,32.3,26.2c13.5,5.9,30.1,9,49.3,9c37.5,0,64.4-11,80-32.7c15.5-21.6,23.4-52.8,23.4-92.9v-82.2
				c0-40.1-7.9-71.4-23.4-92.9C1236.5,239,1209.6,228,1172.1,228L1172.1,228z"/>
			<path class="st0" d="M1172.1,222.5c20,0,37.3,3,51.5,9c14,5.9,25.4,14.7,33.8,26c8.4,11.4,14.7,24.9,18.5,40.2
				c3.9,15.4,5.8,33.4,5.8,53.6v87c0,41.3-8.7,73.5-25.7,95.5c-8.4,10.9-19.7,19.2-33.5,24.6c-14,5.5-30.9,8.3-50.4,8.3
				c-18.4,0-34.6-2.7-48.3-8c-13.6-5.3-25.1-13.3-34.1-23.8c-18.2-21.2-27.5-53.8-27.5-96.6v-87c0-43,9.2-75.6,27.5-96.9
				c9-10.6,20.5-18.6,34.1-23.9C1137.5,225.2,1153.8,222.5,1172.1,222.5 M1172.1,563c38,0,65.3-11.2,81.2-33.3
				c15.7-21.8,23.7-53.4,23.7-93.8v-82.2c0-40.4-8-72-23.7-93.8c-15.9-22.1-43.3-33.4-81.2-33.4s-65.1,11.3-81.2,33.5
				c-15.9,21.9-24,53.4-24,93.7v82.2c0,19.4,1.8,36.8,5.2,51.5c3.5,14.9,9.3,28.3,17.2,39.8c8,11.7,19.1,20.7,32.9,26.8
				C1135.9,559.9,1152.7,563,1172.1,563 M1172.1,219.5c-75.3,0-112.9,43.9-112.9,131.8v87c0,87.6,37.6,131.5,112.9,131.5
				c40,0,68.7-11.4,86.3-34.1c17.6-22.7,26.3-55.2,26.3-97.4v-87c0-20.5-2-38.6-5.9-54.3c-4-15.7-10.3-29.5-19-41.2
				c-8.7-11.8-20.4-20.7-35-26.9C1210.2,222.5,1192.6,219.5,1172.1,219.5L1172.1,219.5L1172.1,219.5z M1172.1,560
				c-19.1,0-35.3-2.9-48.7-8.8c-13.4-5.9-23.9-14.5-31.7-25.7c-7.7-11.3-13.3-24.2-16.7-38.8s-5.2-31.5-5.2-50.8v-82.2
				c0-39.8,7.8-70.4,23.4-91.9c15.6-21.5,41.9-32.3,78.8-32.3s63.4,10.7,78.8,32.1c15.4,21.4,23.1,52.1,23.1,92.1v82.2
				c0,40-7.7,70.6-23.1,92.1C1235.5,549.3,1209.2,560,1172.1,560L1172.1,560L1172.1,560z"/>
		</g>
	</g>
		<g>
		<g>
			<path class="st1" d="M1382.6,563.3V130h49.9v387.7H1602v45.7H1382.6z"/>
			<path class="st1" d="M1431,131.5v387.7h169.5v42.7h-216.4V131.5H1431 M1434,128.5h-52.9v436.4h222.4v-48.7H1434L1434,128.5
				L1434,128.5L1434,128.5z"/>
		</g>
			<g>
			<path class="st1"
			      d="M1678.3,563.3V223.7h46.9v339.6L1678.3,563.3L1678.3,563.3z M1675.9,169.6V109h51.8v60.6H1675.9z"/>
				<path class="st1" d="M1726.2,110.5v57.6h-48.8v-57.6H1726.2 M1723.7,225.2v336.6h-43.9V225.2L1723.7,225.2 M1729.2,107.5h-54.8
				v63.6h54.8V107.5C1729.2,107.5,1729.2,107.5,1729.2,107.5z M1726.7,222.2h-49.9v342.6h49.9V222.2L1726.7,222.2z"/>
		</g>
			<g>
			<path class="st1" d="M1934,694.2c-29.7,0-63.5-8.4-100.3-24.8l13.8-35.9c30.6,12.6,59.7,19,86.5,19c51.5,0,77.6-33.3,77.6-98.9
				v-25.8l-2.6,2.8c-9.6,10.4-21.9,19.3-36.7,26.6c-14.7,7.3-31,11-48.3,11c-36.1,0-64-11.2-83-33.4c-19-22.2-28.7-54.1-28.7-94.7
				v-93.4c0-40.6,9.7-72.5,28.7-94.7c19-22.2,46.9-33.4,83-33.4c17.5,0,34.1,3.7,49.1,11.1c15.1,7.4,27.6,16.3,37.2,26.5l1.8,1.9
				l10.5-34.3h36v331.1c0,14.2-1.1,27.8-3.2,40.2c-2.1,12.4-6.1,25-11.8,37.4c-5.7,12.3-13.1,23.1-22.1,32
				c-8.9,8.8-21,16.1-35.8,21.6C1970.8,691.4,1953.4,694.2,1934,694.2L1934,694.2z M1935.2,261.8c-26.9,0-46.6,7.3-58.5,21.7
				c-11.8,14.3-17.8,36.8-17.8,66.8v86.1c0,30.2,6,52.8,17.8,67.1c11.9,14.4,31.6,21.7,58.5,21.7s52.8-11.3,75.9-33.6l0.5-0.4V295.5
				l-0.5-0.4C1988.2,273,1962.7,261.8,1935.2,261.8z"/>
				<path class="st1" d="M1923.9,220c17.3,0,33.6,3.7,48.4,10.9c14.9,7.3,27.3,16.1,36.7,26.1l3.5,3.8l1.5-4.9l9.4-30.7h33.4v329.6
				c0,14.2-1.1,27.6-3.1,40c-2.1,12.2-6,24.7-11.6,37c-5.6,12.2-12.9,22.8-21.8,31.5c-8.8,8.7-20.7,15.8-35.3,21.2
				c-14.7,5.4-31.9,8.2-51.2,8.2c-29.2,0-62.3-8.1-98.4-24.1l12.8-33.1c30.2,12.3,59,18.5,85.6,18.5c52.5,0,79.1-33.8,79.1-100.4
				V524l-5.2,5.6c-9.4,10.2-21.6,19.1-36.2,26.3c-14.5,7.2-30.6,10.8-47.7,10.8s-33.9-2.8-47.4-8.3c-13.5-5.5-25.1-13.7-34.4-24.6
				c-18.8-22-28.3-53.5-28.3-93.8v-93.4c0-40.2,9.5-71.8,28.3-93.8c9.3-10.9,20.9-19.2,34.4-24.6C1890.1,222.8,1906,220,1923.9,220
				 M1935.2,526.8c27.7,0,53.5-11.4,76.9-34l0.9-0.9v-197l-0.9-0.9c-23.2-22.4-49.1-33.7-76.9-33.7s-47.5,7.5-59.7,22.2
				c-12.1,14.6-18.2,37.4-18.2,67.8v86.1c0,30.6,6.1,53.5,18.2,68.1C1887.7,519.3,1907.8,526.8,1935.2,526.8 M1923.9,217
				c-36.7,0-64.8,11.3-84.1,33.9s-29.1,54.5-29.1,95.7v93.4c0,41.2,9.7,73.1,29.1,95.7c19.4,22.6,47.4,33.9,84.1,33.9
				c17.7,0,34-3.7,49-11.1c15-7.4,27.4-16.4,37.1-26.9v21.9c0,64.9-25.4,97.4-76.1,97.4c-27.2,0-56.3-6.5-87.3-19.5l-14.9,38.7
				c37.7,17,71.8,25.6,102.2,25.6c19.7,0,37.1-2.8,52.2-8.4c15.1-5.6,27.2-12.9,36.4-21.9c9.1-9,16.6-19.8,22.4-32.4
				c5.8-12.6,9.7-25.2,11.9-37.7c2.1-12.6,3.2-26.1,3.2-40.5V222.2h-38.7l-10,32.9c-9.7-10.4-22.3-19.3-37.6-26.8
				C1958.4,220.8,1941.8,217,1923.9,217L1923.9,217L1923.9,217z M1935.2,523.8c-26.6,0-45.7-7-57.4-21.1
				c-11.7-14.1-17.5-36.2-17.5-66.2v-86.1c0-29.8,5.8-51.8,17.5-65.9c11.7-14.1,30.8-21.1,57.4-21.1s52.1,11,74.9,32.9v194.5
				C1987.1,512.7,1962.2,523.8,1935.2,523.8L1935.2,523.8L1935.2,523.8z"/>
		</g>
			<g>
			<path class="st1" d="M2357.2,563.3V346.1c0-28.7-6.1-49.6-18.1-62.2c-12-12.6-30.1-19-53.7-19c-14.6,0-29.5,3.7-44.5,11.1
				c-14.9,7.3-27.9,15.9-38.7,25.5l-0.5,0.5v261.5h-46.9V98.9h46.9v164.8l2.5-2.5c11.2-10.8,25.5-20.8,42.4-29.6
				c16.9-8.8,35.5-13.2,55.4-13.2c34.4,0,60.3,10.7,76.9,31.8c16.6,21.2,25.1,49.4,25.1,83.8v229.2L2357.2,563.3L2357.2,563.3z"/>
				<path class="st1" d="M2200.3,100.4v166.9l5.1-4.9c11.1-10.7,25.2-20.6,42.1-29.3c16.6-8.7,35.1-13.1,54.8-13.1
				c17.1,0,32.1,2.6,44.7,7.9c12.5,5.2,22.9,13,31,23.4c16.4,21,24.8,48.9,24.8,82.9v227.7h-43.9V346c0-29.1-6.2-50.3-18.5-63.2
				c-12.3-12.9-30.8-19.5-54.8-19.5c-14.8,0-30,3.8-45.1,11.3c-15,7.4-28.1,16-39,25.7l-1,0.9v260.7h-43.9V100.4H2200.3
				 M2203.3,97.4h-49.9v467.4h49.9V302.5c10.8-9.5,23.5-18,38.3-25.3c14.8-7.3,29.4-11,43.8-11c23.3,0,40.9,6.2,52.6,18.6
				c11.8,12.4,17.6,32.8,17.6,61.2v218.8h49.9V334.2c0-34.9-8.5-63.1-25.4-84.8s-43-32.4-78.1-32.4c-20.3,0-39,4.5-56.1,13.4
				c-17.1,8.9-31.4,18.9-42.8,29.8L2203.3,97.4L2203.3,97.4L2203.3,97.4z"/>
		</g>
			<g>
			<path class="st1" d="M2625.3,565.2c-34.7,0-59.2-8.2-73-24.3c-13.8-16.2-20.8-43.3-20.8-80.7V264.2H2471v-36.4l61.8-4.3v-68.8
				l45.7-5.7v74.7h94v40.5h-94v202c0,19.6,3.9,33.9,11.5,42.7c7.7,8.8,21.7,13.3,41.8,13.3c12.7,0,28-2.6,45.5-7.8l8.8,37.7
				C2667.7,560.8,2647.3,565.2,2625.3,565.2L2625.3,565.2z"/>
				<path class="st1" d="M2577,150.7v74.5h94v37.5h-94v203.5c0,19.9,4,34.6,11.8,43.7c8,9.2,22.4,13.8,42.9,13.8
				c12.5,0,27.4-2.5,44.4-7.4l8.2,35c-17.8,8.2-37.6,12.4-58.9,12.4c-34.2,0-58.4-8-71.8-23.8c-13.6-15.9-20.4-42.7-20.4-79.8V262.7
				h-60.6v-33.4l59-4.1l2.8-0.2v-68.9L2577,150.7 M2580,147.4l-48.7,6.1v68.8l-61.8,4.3v39.3h60.6v194.5c0,37.9,7.1,65.2,21.1,81.7
				c14.1,16.5,38.8,24.8,74.1,24.8c22.7,0,43.5-4.6,62.4-13.7l-9.4-40.5c-18.1,5.5-33.6,8.2-46.6,8.2c-19.7,0-33.2-4.3-40.6-12.8
				c-7.4-8.5-11.1-22.4-11.1-41.7V265.7h94v-43.5h-94L2580,147.4L2580,147.4L2580,147.4z"/>
		</g>
	</g>
</g>
	<path class="st2" d="M467.9,608.9h2366.7"/>
	<g>
	<g>
		<path class="st3" d="M176.2,30c-7.9,0-14.3-6.4-14.3-14.3s6.4-14.3,14.3-14.3h67.7c7.9,0,14.3,6.4,14.3,14.3S251.8,30,243.9,30
			H176.2L176.2,30z"/>
		<path class="st3" d="M243.9,3c7,0,12.8,5.7,12.8,12.8s-5.7,12.8-12.8,12.8h-67.7c-7,0-12.8-5.7-12.8-12.8S169.2,3,176.2,3H243.9
			 M243.9,0h-67.7c-8.7,0-15.8,7.1-15.8,15.8l0,0c0,8.7,7.1,15.8,15.8,15.8h67.7c8.7,0,15.8-7.1,15.8-15.8l0,0
			C259.7,7.1,252.6,0,243.9,0L243.9,0z"/>
	</g>
		<g>
		<path class="st3" d="M88.4,72.9c-7.9,0-14.3-6.4-14.3-14.3s6.4-14.3,14.3-14.3h243.4c7.9,0,14.3,6.4,14.3,14.3
			s-6.4,14.3-14.3,14.3H88.4z"/>
			<path class="st3" d="M331.8,45.9c7,0,12.8,5.7,12.8,12.8s-5.7,12.8-12.8,12.8H88.4c-7,0-12.8-5.7-12.8-12.8s5.7-12.8,12.8-12.8
			L331.8,45.9 M331.8,42.9H88.4c-8.7,0-15.8,7.1-15.8,15.8l0,0c0,8.7,7.1,15.8,15.8,15.8h243.4c8.7,0,15.8-7.1,15.8-15.8l0,0
			C347.6,49.9,340.5,42.9,331.8,42.9L331.8,42.9z"/>
	</g>
		<g>
		<path class="st3" d="M47.3,115.8c-7.9,0-14.3-6.4-14.3-14.3s6.4-14.3,14.3-14.3h388c7.9,0,14.3,6.4,14.3,14.3s-6.4,14.3-14.3,14.3
			H47.3z"/>
			<path class="st3" d="M435.3,88.8c7,0,12.8,5.7,12.8,12.8s-5.7,12.8-12.8,12.8h-388c-7,0-12.8-5.7-12.8-12.8s5.7-12.8,12.8-12.8
			L435.3,88.8 M435.3,85.8h-388c-8.7,0-15.8,7.1-15.8,15.8l0,0c0,8.7,7.1,15.8,15.8,15.8h388c8.7,0,15.8-7.1,15.8-15.8l0,0
			C451.1,92.8,444,85.8,435.3,85.8L435.3,85.8z"/>
	</g>
		<g>
		<path class="st3" d="M27.4,158.7c-7.9,0-14.3-6.4-14.3-14.3s6.4-14.3,14.3-14.3h365.3c7.9,0,14.3,6.4,14.3,14.3
			s-6.4,14.3-14.3,14.3H27.4z"/>
			<path class="st3" d="M392.7,131.6c7,0,12.8,5.7,12.8,12.8s-5.7,12.8-12.8,12.8H27.4c-7,0-12.8-5.7-12.8-12.8s5.7-12.8,12.8-12.8
			H392.7 M392.7,128.6H27.4c-8.7,0-15.8,7.1-15.8,15.8l0,0c0,8.7,7.1,15.8,15.8,15.8h365.3c8.7,0,15.8-7.1,15.8-15.8l0,0
			C408.5,135.7,401.4,128.6,392.7,128.6L392.7,128.6z"/>
	</g>
		<g>
		<path class="st3" d="M15.8,201.6c-7.9,0-14.3-6.4-14.3-14.3S7.9,173,15.8,173h419.2c7.9,0,14.3,6.4,14.3,14.3s-6.4,14.3-14.3,14.3
			H15.8z"/>
			<path class="st3" d="M434.9,174.5c7,0,12.8,5.7,12.8,12.8s-5.7,12.8-12.8,12.8H15.8c-7,0-12.8-5.7-12.8-12.8s5.7-12.8,12.8-12.8
			H434.9 M434.9,171.5H15.8c-8.7,0-15.8,7.1-15.8,15.8s7.1,15.8,15.8,15.8h419.2c8.7,0,15.8-7.1,15.8-15.8S443.6,171.5,434.9,171.5
			L434.9,171.5z"/>
	</g>
		<g>
		<path class="st3" d="M15.8,244.4c-7.9,0-14.3-6.4-14.3-14.3s6.4-14.3,14.3-14.3h376.6c7.9,0,14.3,6.4,14.3,14.3
			s-6.4,14.3-14.3,14.3H15.8z"/>
			<path class="st3" d="M392.4,217.4c7,0,12.8,5.7,12.8,12.8s-5.7,12.8-12.8,12.8H15.8c-7,0-12.8-5.7-12.8-12.8s5.7-12.8,12.8-12.8
			H392.4 M392.4,214.4H15.8c-8.7,0-15.8,7.1-15.8,15.8s7.1,15.8,15.8,15.8h376.6c8.7,0,15.8-7.1,15.8-15.8S401.1,214.4,392.4,214.4
			L392.4,214.4L392.4,214.4z"/>
	</g>
		<g>
		<path class="st3" d="M33.4,287.3c-7.9,0-14.3-6.4-14.3-14.3s6.4-14.3,14.3-14.3h402.2c7.9,0,14.3,6.4,14.3,14.3
			s-6.4,14.3-14.3,14.3H33.4z"/>
			<path class="st3" d="M435.6,260.3c7,0,12.8,5.7,12.8,12.8s-5.7,12.8-12.8,12.8H33.4c-7,0-12.8-5.7-12.8-12.8s5.7-12.8,12.8-12.8
			H435.6 M435.6,257.3H33.4c-8.7,0-15.8,7.1-15.8,15.8s7.1,15.8,15.8,15.8h402.2c8.7,0,15.8-7.1,15.8-15.8S444.3,257.3,435.6,257.3
			L435.6,257.3z"/>
	</g>
		<g>
		<path class="st3" d="M64.1,330.2c-7.9,0-14.3-6.4-14.3-14.3s6.4-14.3,14.3-14.3h266.1c7.9,0,14.3,6.4,14.3,14.3
			s-6.4,14.3-14.3,14.3H64.1z"/>
			<path class="st3" d="M330.2,303.2c7,0,12.8,5.7,12.8,12.8s-5.7,12.8-12.8,12.8H64.1c-7,0-12.8-5.7-12.8-12.8s5.7-12.8,12.8-12.8
			H330.2 M330.2,300.2H64.1c-8.7,0-15.8,7.1-15.8,15.8l0,0c0,8.7,7.1,15.8,15.8,15.8h266.1c8.7,0,15.8-7.1,15.8-15.8l0,0
			C346,307.2,338.9,300.2,330.2,300.2L330.2,300.2z"/>
	</g>
		<g>
		<path class="st3" d="M92.6,373.1c-7.9,0-14.3-6.4-14.3-14.3s6.4-14.3,14.3-14.3h300.1c7.9,0,14.3,6.4,14.3,14.3
			s-6.4,14.3-14.3,14.3H92.6z"/>
			<path class="st3" d="M392.7,346c7,0,12.8,5.7,12.8,12.8s-5.7,12.8-12.8,12.8H92.6c-7,0-12.8-5.7-12.8-12.8S85.5,346,92.6,346
			H392.7 M392.7,343H92.6c-8.7,0-15.8,7.1-15.8,15.8l0,0c0,8.7,7.1,15.8,15.8,15.8h300.1c8.7,0,15.8-7.1,15.8-15.8l0,0
			C408.4,350.1,401.4,343,392.7,343L392.7,343z"/>
	</g>
		<g>
		<path class="st3" d="M113.2,416c-7.9,0-14.3-6.4-14.3-14.3s6.4-14.3,14.3-14.3h198.1c7.9,0,14.3,6.4,14.3,14.3
			s-6.4,14.3-14.3,14.3H113.2z"/>
			<path class="st3" d="M311.2,388.9c7,0,12.8,5.7,12.8,12.8s-5.7,12.8-12.8,12.8H113.2c-7,0-12.8-5.7-12.8-12.8s5.7-12.8,12.8-12.8
			H311.2 M311.2,385.9H113.2c-8.7,0-15.8,7.1-15.8,15.8l0,0c0,8.7,7.1,15.8,15.8,15.8h198.1c8.7,0,15.8-7.1,15.8-15.8l0,0
			C327,393,320,385.9,311.2,385.9L311.2,385.9z"/>
	</g>
		<g>
		<path class="st3" d="M121.5,458.9c-7.9,0-14.3-6.4-14.3-14.3s6.4-14.3,14.3-14.3h209.4c7.9,0,14.3,6.4,14.3,14.3
			s-6.4,14.3-14.3,14.3H121.5z"/>
			<path class="st3" d="M330.9,431.8c7,0,12.8,5.7,12.8,12.8s-5.7,12.8-12.8,12.8H121.5c-7,0-12.8-5.7-12.8-12.8s5.7-12.8,12.8-12.8
			H330.9 M330.9,428.8H121.5c-8.7,0-15.8,7.1-15.8,15.8l0,0c0,8.7,7.1,15.8,15.8,15.8h209.4c8.7,0,15.8-7.1,15.8-15.8l0,0
			C346.7,435.9,339.6,428.8,330.9,428.8L330.9,428.8z"/>
	</g>
		<g>
		<path class="st3" d="M123.8,501.7c-7.9,0-14.3-6.4-14.3-14.3s6.4-14.3,14.3-14.3h172.6c7.9,0,14.3,6.4,14.3,14.3
			s-6.4,14.3-14.3,14.3H123.8z"/>
			<path class="st3" d="M296.4,474.7c7,0,12.8,5.7,12.8,12.8s-5.7,12.8-12.8,12.8H123.8c-7,0-12.8-5.7-12.8-12.8s5.7-12.8,12.8-12.8
			H296.4 M296.4,471.7H123.8c-8.7,0-15.8,7.1-15.8,15.8s7.1,15.8,15.8,15.8h172.6c8.7,0,15.8-7.1,15.8-15.8S305.1,471.7,296.4,471.7
			L296.4,471.7z"/>
	</g>
		<g>
		<path class="st1" d="M123.8,544.6c-7.9,0-14.3-6.4-14.3-14.3s6.4-14.3,14.3-14.3h172.6c7.9,0,14.3,6.4,14.3,14.3
			s-6.4,14.3-14.3,14.3H123.8z"/>
			<path class="st1" d="M296.4,517.6c7,0,12.8,5.7,12.8,12.8s-5.7,12.8-12.8,12.8H123.8c-7,0-12.8-5.7-12.8-12.8s5.7-12.8,12.8-12.8
			H296.4 M296.4,514.6H123.8c-8.7,0-15.8,7.1-15.8,15.8s7.1,15.8,15.8,15.8h172.6c8.7,0,15.8-7.1,15.8-15.8S305.1,514.6,296.4,514.6
			L296.4,514.6z"/>
	</g>
		<g>
		<path class="st1" d="M123.8,587.5c-7.9,0-14.3-6.4-14.3-14.3s6.4-14.3,14.3-14.3h172.6c7.9,0,14.3,6.4,14.3,14.3
			s-6.4,14.3-14.3,14.3H123.8z"/>
			<path class="st1" d="M296.4,560.5c7,0,12.8,5.7,12.8,12.8s-5.7,12.8-12.8,12.8H123.8c-7,0-12.8-5.7-12.8-12.8s5.7-12.8,12.8-12.8
			H296.4 M296.4,557.5H123.8c-8.7,0-15.8,7.1-15.8,15.8l0,0c0,8.7,7.1,15.8,15.8,15.8h172.6c8.7,0,15.8-7.1,15.8-15.8l0,0
			C312.1,564.5,305.1,557.5,296.4,557.5L296.4,557.5z"/>
	</g>
		<g>
		<path class="st1" d="M123.8,630.4c-7.9,0-14.3-6.4-14.3-14.3s6.4-14.3,14.3-14.3h172.6c7.9,0,14.3,6.4,14.3,14.3
			s-6.4,14.3-14.3,14.3H123.8z"/>
			<path class="st1" d="M296.4,603.3c7,0,12.8,5.7,12.8,12.8s-5.7,12.8-12.8,12.8H123.8c-7,0-12.8-5.7-12.8-12.8s5.7-12.8,12.8-12.8
			H296.4 M296.4,600.3H123.8c-8.7,0-15.8,7.1-15.8,15.8l0,0c0,8.7,7.1,15.8,15.8,15.8h172.6c8.7,0,15.8-7.1,15.8-15.8l0,0
			C312.1,607.4,305.1,600.3,296.4,600.3L296.4,600.3z"/>
	</g>
		<g>
		<path class="st1" d="M176.2,673.3c-7.9,0-14.3-6.4-14.3-14.3s6.4-14.3,14.3-14.3h67.7c7.9,0,14.3,6.4,14.3,14.3
			s-6.4,14.3-14.3,14.3H176.2L176.2,673.3z"/>
			<path class="st1" d="M243.9,646.2c7,0,12.8,5.7,12.8,12.8s-5.7,12.8-12.8,12.8h-67.7c-7,0-12.8-5.7-12.8-12.8s5.7-12.8,12.8-12.8
			H243.9 M243.9,643.2h-67.7c-8.7,0-15.8,7.1-15.8,15.8l0,0c0,8.7,7.1,15.8,15.8,15.8h67.7c8.7,0,15.8-7.1,15.8-15.8l0,0
			C259.7,650.3,252.6,643.2,243.9,643.2L243.9,643.2z"/>
	</g>
</g>
</svg>
